<?xml version="1.0" encoding="utf-8"?>
<!-- Generator: Adobe Illustrator 23.0.1, SVG Export Plug-In . SVG Version: 6.00 Build 0)  -->
<svg version="1.1" id="Capa_1" xmlns="http://www.w3.org/2000/svg" xmlns:xlink="http://www.w3.org/1999/xlink" x="0px" y="0px"
	 viewBox="0 0 90 90" style="enable-background:new 0 0 90 90;" xml:space="preserve">
<style type="text/css">
	.st0{fill:#010002;}
</style>
<g>
	<g>
		<circle class="st0" cx="44.9" cy="9.1" r="7.3"/>
		<path class="st0" d="M47.4,19.8c-1.8-0.4-3.8-0.4-5.6,0.1c-12.1,1.4-16,15.4-14.9,26.1c0.5,4.6,7.7,4.7,7.3,0
			C33.8,42.1,34,36.2,36,32c0,5.1,0,10.1,0,15.2c0,0.2,0,0.3,0,0.5c0,0.1,0,0.2,0,0.2c0,12.1,0,24.1-0.5,36.2
			c-0.2,5.4,8.1,5.3,8.3,0c0.4-9.4,0.5-18.9,0.5-28.3c0.4,0,0.8,0,1.2,0c0,9.4,0.1,18.9,0.5,28.3c0.2,5.3,8.5,5.4,8.3,0
			c-0.5-12-0.5-24.1-0.5-36.2c0-0.4,0-0.7-0.1-1c0-5.2-0.2-10.5-0.1-15.7c2.5,4.2,2.7,10.6,2.3,14.7c-0.5,4.7,6.8,4.6,7.3,0
			C64.2,35.1,60.1,20.7,47.4,19.8z"/>
	</g>
</g>
</svg>
