<?xml version="1.0" encoding="utf-8"?>
<!-- Generator: Adobe Illustrator 23.0.1, SVG Export Plug-In . SVG Version: 6.00 Build 0)  -->
<svg version="1.0" id="Capa_1" xmlns="http://www.w3.org/2000/svg" xmlns:xlink="http://www.w3.org/1999/xlink" x="0px" y="0px"
	 viewBox="0 0 30 36.6" style="enable-background:new 0 0 30 36.6;" xml:space="preserve">
<style type="text/css">
	.st0{fill:#B52725;}
	.st1{fill:#1D1D21;}
	.st2{fill:none;stroke:#FFFFFF;stroke-width:0.5;stroke-miterlimit:10;}
	.st3{fill:#FFFFFF;}
</style>
<path class="st0" d="M29,21V8c0-3.9-3.1-7-7-7H8C4.1,1,1,4.1,1,8v14c0,3.9,3.1,7,7,7h14c3.9,0,7-3.1,7-7v-0.4
	c-0.6,0.7-2.1,1.4-3.8,1.4c-2.6,0-5.3-1.6-5.6-4.5h-0.2c-1.3,4.2-4.3,4.9-5.9,4.9c-6.1,0-6-7.9-5.6-11.5C8,11,8.1,7.7,9.7,7.7
	c1.3,0,1.2,1.4,1.1,2.7c-0.1,3.1-1,10.7,3.4,10.7c5.4,0,4.8-6.9,5.4-10.2c0.3-1.3,2.4-1.3,2.4,0.4c-0.1,1.8-0.2,3.2-0.3,5
	C21.5,22.6,27.2,22.1,29,21z"/>
<path class="st1" d="M16.5,31.7c-0.2,0-0.3,0.1-0.3,0.2l-1.3,3.5l-1.3-3.5c0,0-0.1-0.2-0.3-0.2c-0.3,0-0.3,0.2-0.3,0.2v3.8
	c0,0.1,0.1,0.2,0.2,0.2c0.1,0,0.2-0.1,0.2-0.2v-3.4l0,0l1.3,3.5c0,0,0.1,0.2,0.2,0.2c0.2,0,0.2-0.2,0.2-0.2l1.3-3.5l0,0v3.4
	c0,0.1,0.1,0.2,0.2,0.2s0.2-0.1,0.2-0.2v-3.8C16.7,31.9,16.7,31.7,16.5,31.7z"/>
<path class="st1" d="M11.6,31.7c-0.2,0-0.4,0.2-0.4,0.4v3.4c0,0.2,0.2,0.4,0.4,0.4s0.4-0.2,0.4-0.4v-3.4
	C12,31.8,11.8,31.7,11.6,31.7z"/>
<path class="st1" d="M5.9,31.7c-0.2,0-0.4,0.2-0.4,0.4v2.2c0,0.6-0.3,0.9-0.9,0.9s-0.9-0.3-0.9-0.9c0,0,0-1.8,0-2.2
	c0-0.2-0.2-0.4-0.4-0.4s-0.4,0.2-0.4,0.4v2.2c0,1.1,0.6,1.6,1.7,1.6s1.7-0.5,1.7-1.6v-2.2C6.3,31.8,6.2,31.7,5.9,31.7z"/>
<path class="st1" d="M8.7,31.7c-1.1,0-1.7,0.5-1.7,1.6v2.2c0,0.2,0.2,0.4,0.4,0.4c0.2,0,0.4-0.2,0.4-0.4c0,0,0-2,0-2.2
	c0-0.6,0.3-0.9,0.9-0.9c0.6,0,0.9,0.3,0.9,0.9c0,0,0,1.8,0,2.2c0,0.2,0.2,0.4,0.4,0.4s0.4-0.2,0.4-0.4v-2.2
	C10.4,32.2,9.8,31.7,8.7,31.7z"/>
<path class="st1" d="M27.9,34.4c-0.2-0.1-0.2,0.1-0.2,0.1l0,0c0,0.1,0,0.1-0.1,0.2c-0.1,0.2-0.4,0.8-1.1,0.8c-0.8,0-1.5-0.6-1.5-1.7
	c0-0.9,0.4-1.8,1.5-1.8c0.7,0,1,0.4,1.1,0.5s0.1,0.3,0.3,0.2c0,0,0.2-0.1,0.1-0.2c0,0,0-0.1-0.1-0.1c-0.1-0.2-0.5-0.7-1.4-0.7
	c-1.1,0-1.9,0.8-1.9,2.1c0,1.2,0.7,2.1,1.9,2.1c1,0,1.4-0.7,1.5-0.9c0-0.1,0.1-0.2,0.1-0.3C28,34.5,27.9,34.4,27.9,34.4z"/>
<path class="st1" d="M19.2,31.8c0,0-0.1-0.2-0.3-0.2c-0.2,0-0.3,0.2-0.3,0.2l0,0l-1.5,3.9c0,0,0,0.1,0.1,0.1c0.2,0,0.3-0.1,0.3-0.1
	l0.5-1.2h1.8l0.5,1.2c0,0,0.1,0.1,0.3,0.1c0.2,0,0.2-0.1,0.2-0.1L19.2,31.8z M18.1,34.2l0.8-2.1l0.8,2.1H18.1z"/>
<path class="st1" d="M23.3,33.8L23.3,33.8c0,0,0.8-0.1,0.8-1c0-0.7-0.6-1.1-1.2-1.1h-1.7c-0.1,0-0.1,0.1-0.1,0.1v3.8
	c0,0.1,0.1,0.2,0.2,0.2s0.2-0.1,0.2-0.2l0,0v-1.7H23c0.5,0,0.7,0.3,0.7,1c0,0.2,0,0.4,0,0.5c0,0.3,0,0.5,0.3,0.5
	c0.1,0,0.2-0.1,0.2-0.1c0-0.1-0.1-0.3-0.1-1C24,34,23.5,33.8,23.3,33.8z M22.8,33.6h-1.4V32h1.4c0.5,0,0.9,0.3,0.9,0.8
	C23.7,33.3,23.3,33.6,22.8,33.6z"/>
<path class="st2" d="M29,21.6V22c0,3.9-3.1,7-7,7H8c-3.9,0-7-3.1-7-7V8c0-3.9,3.1-7,7-7h14c3.9,0,7,3.1,7,7v13V21.6z"/>
<path class="st3" d="M28.7,21.8C28,22.4,26.7,23,25.1,23c-2.6,0-5.3-1.6-5.6-4.5h-0.2c-1.3,4.2-4.3,4.9-5.9,4.9
	c-6.1,0-6-7.9-5.6-11.5C7.9,11.1,8,7.7,9.7,7.7c1.3,0,1.2,1.4,1.1,2.7c-0.1,3.1-1,10.7,3.4,10.7c5.4,0,4.8-6.9,5.4-10.2
	c0.3-1.3,2.4-1.3,2.4,0.4c-0.1,1.8-0.2,3.2-0.3,5c-0.3,5.9,4.6,6.1,7.3,4.6c0,0,0,0,0,0l0,0.3v0.3C29,21.6,28.7,21.8,28.7,21.8z"/>
</svg>
