<?xml version="1.0" encoding="utf-8"?>
<!-- Generator: Adobe Illustrator 23.0.1, SVG Export Plug-In . SVG Version: 6.00 Build 0)  -->
<svg version="1.1" id="Capa_1" xmlns="http://www.w3.org/2000/svg" xmlns:xlink="http://www.w3.org/1999/xlink" x="0px" y="0px"
	 viewBox="0 0 30 24.1" style="enable-background:new 0 0 30 24.1;" xml:space="preserve">
<style type="text/css">
	.st0{fill:#FFFFFF;}
	.st1{fill:#B52725;}
</style>
<g>
	<polygon class="st0" points="8.6,5 18.5,6.8 21.1,13.5 23.7,14.7 23.7,15.7 22.1,17 7.4,17.8 	"/>
	<path class="st1" d="M23.7,14.8V5.8c0-2.7-2.2-4.8-4.8-4.8H9.2C6.5,1,4.3,3.2,4.3,5.8v9.7c0,2.7,2.2,4.8,4.8,4.8h1.4l2.6,2.5
		c0.5,0.4,1.2,0.4,1.6,0l2.6-2.5h1.4c2.7,0,4.8-2.2,4.8-4.8v-0.3c-0.7,0.6-1.7,1-2.7,1c-1.9,0.1-3.6-1.2-3.8-3.1H17
		c-0.9,2.9-3,3.3-4.1,3.3c-4.2,0-4.1-5.4-3.8-7.9C9.2,8,9.3,5.6,10.4,5.6s0.8,1,0.7,1.9c-0.1,2.1-0.7,7.3,2.3,7.3s3.3-4.8,3.8-7
		c0.2-0.4,0.7-0.6,1.1-0.4c0.3,0.1,0.5,0.4,0.5,0.7c-0.1,1.2-0.2,2.2-0.2,3.5C18.5,15.8,21.9,15.9,23.7,14.8z"/>
</g>
</svg>
